<svg width="140" height="46" viewBox="0 0 140 46" fill="none" xmlns="http://www.w3.org/2000/svg">
<g filter="url(#filter0_d_37_32)">
<path d="M4 4C4 1.79086 5.79086 0 8 0H47C49.2091 0 51 1.79086 51 4V34C51 36.2091 49.2091 38 47 38H8C5.79086 38 4 36.2091 4 34V4Z" fill="#82A1FF"/>
<path d="M23.3281 26.1602V28H14.7969V26.1602H23.3281ZM15.2422 10.9375V28H12.9805V10.9375H15.2422ZM27.9453 15.3203V28H25.7656V15.3203H27.9453ZM25.6016 11.957C25.6016 11.6055 25.707 11.3086 25.918 11.0664C26.1367 10.8242 26.457 10.7031 26.8789 10.7031C27.293 10.7031 27.6094 10.8242 27.8281 11.0664C28.0547 11.3086 28.168 11.6055 28.168 11.957C28.168 12.293 28.0547 12.582 27.8281 12.8242C27.6094 13.0586 27.293 13.1758 26.8789 13.1758C26.457 13.1758 26.1367 13.0586 25.918 12.8242C25.707 12.582 25.6016 12.293 25.6016 11.957ZM34.6602 28H32.4922V13.9844C32.4922 13.0703 32.6562 12.3008 32.9844 11.6758C33.3203 11.043 33.8008 10.5664 34.4258 10.2461C35.0508 9.91797 35.793 9.75391 36.6523 9.75391C36.9023 9.75391 37.1523 9.76953 37.4023 9.80078C37.6602 9.83203 37.9102 9.87891 38.1523 9.94141L38.0352 11.7109C37.8711 11.6719 37.6836 11.6445 37.4727 11.6289C37.2695 11.6133 37.0664 11.6055 36.8633 11.6055C36.4023 11.6055 36.0039 11.6992 35.668 11.8867C35.3398 12.0664 35.0898 12.332 34.918 12.6836C34.7461 13.0352 34.6602 13.4688 34.6602 13.9844V28ZM37.3555 15.3203V16.9844H30.4883V15.3203H37.3555ZM44.75 28.2344C43.8672 28.2344 43.0664 28.0859 42.3477 27.7891C41.6367 27.4844 41.0234 27.0586 40.5078 26.5117C40 25.9648 39.6094 25.3164 39.3359 24.5664C39.0625 23.8164 38.9258 22.9961 38.9258 22.1055V21.6133C38.9258 20.582 39.0781 19.6641 39.3828 18.8594C39.6875 18.0469 40.1016 17.3594 40.625 16.7969C41.1484 16.2344 41.7422 15.8086 42.4062 15.5195C43.0703 15.2305 43.7578 15.0859 44.4688 15.0859C45.375 15.0859 46.1562 15.2422 46.8125 15.5547C47.4766 15.8672 48.0195 16.3047 48.4414 16.8672C48.8633 17.4219 49.1758 18.0781 49.3789 18.8359C49.582 19.5859 49.6836 20.4062 49.6836 21.2969V22.2695H40.2148V20.5H47.5156V20.3359C47.4844 19.7734 47.3672 19.2266 47.1641 18.6953C46.9688 18.1641 46.6562 17.7266 46.2266 17.3828C45.7969 17.0391 45.2109 16.8672 44.4688 16.8672C43.9766 16.8672 43.5234 16.9727 43.1094 17.1836C42.6953 17.3867 42.3398 17.6914 42.043 18.0977C41.7461 18.5039 41.5156 19 41.3516 19.5859C41.1875 20.1719 41.1055 20.8477 41.1055 21.6133V22.1055C41.1055 22.707 41.1875 23.2734 41.3516 23.8047C41.5234 24.3281 41.7695 24.7891 42.0898 25.1875C42.418 25.5859 42.8125 25.8984 43.2734 26.125C43.7422 26.3516 44.2734 26.4648 44.8672 26.4648C45.6328 26.4648 46.2812 26.3086 46.8125 25.9961C47.3438 25.6836 47.8086 25.2656 48.207 24.7422L49.5195 25.7852C49.2461 26.1992 48.8984 26.5938 48.4766 26.9688C48.0547 27.3438 47.5352 27.6484 46.918 27.8828C46.3086 28.1172 45.5859 28.2344 44.75 28.2344Z" fill="white"/>
<path d="M61.6367 23.6875C61.6367 23.2891 61.5742 22.9375 61.4492 22.6328C61.332 22.3203 61.1211 22.0391 60.8164 21.7891C60.5195 21.5391 60.1055 21.3008 59.5742 21.0742C59.0508 20.8477 58.3867 20.6172 57.582 20.3828C56.7383 20.1328 55.9766 19.8555 55.2969 19.5508C54.6172 19.2383 54.0352 18.8828 53.5508 18.4844C53.0664 18.0859 52.6953 17.6289 52.4375 17.1133C52.1797 16.5977 52.0508 16.0078 52.0508 15.3438C52.0508 14.6797 52.1875 14.0664 52.4609 13.5039C52.7344 12.9414 53.125 12.4531 53.6328 12.0391C54.1484 11.6172 54.7617 11.2891 55.4727 11.0547C56.1836 10.8203 56.9766 10.7031 57.8516 10.7031C59.1328 10.7031 60.2188 10.9492 61.1094 11.4414C62.0078 11.9258 62.6914 12.5625 63.1602 13.3516C63.6289 14.1328 63.8633 14.9688 63.8633 15.8594H61.6133C61.6133 15.2188 61.4766 14.6523 61.2031 14.1602C60.9297 13.6602 60.5156 13.2695 59.9609 12.9883C59.4062 12.6992 58.7031 12.5547 57.8516 12.5547C57.0469 12.5547 56.3828 12.6758 55.8594 12.918C55.3359 13.1602 54.9453 13.4883 54.6875 13.9023C54.4375 14.3164 54.3125 14.7891 54.3125 15.3203C54.3125 15.6797 54.3867 16.0078 54.5352 16.3047C54.6914 16.5938 54.9297 16.8633 55.25 17.1133C55.5781 17.3633 55.9922 17.5938 56.4922 17.8047C57 18.0156 57.6055 18.2188 58.3086 18.4141C59.2773 18.6875 60.1133 18.9922 60.8164 19.3281C61.5195 19.6641 62.0977 20.043 62.5508 20.4648C63.0117 20.8789 63.3516 21.3516 63.5703 21.8828C63.7969 22.4062 63.9102 23 63.9102 23.6641C63.9102 24.3594 63.7695 24.9883 63.4883 25.5508C63.207 26.1133 62.8047 26.5938 62.2812 26.9922C61.7578 27.3906 61.1289 27.6992 60.3945 27.918C59.668 28.1289 58.8555 28.2344 57.957 28.2344C57.168 28.2344 56.3906 28.125 55.625 27.9062C54.8672 27.6875 54.1758 27.3594 53.5508 26.9219C52.9336 26.4844 52.4375 25.9453 52.0625 25.3047C51.6953 24.6562 51.5117 23.9062 51.5117 23.0547H53.7617C53.7617 23.6406 53.875 24.1445 54.1016 24.5664C54.3281 24.9805 54.6367 25.3242 55.0273 25.5977C55.4258 25.8711 55.875 26.0742 56.375 26.207C56.8828 26.332 57.4102 26.3945 57.957 26.3945C58.7461 26.3945 59.4141 26.2852 59.9609 26.0664C60.5078 25.8477 60.9219 25.5352 61.2031 25.1289C61.4922 24.7227 61.6367 24.2422 61.6367 23.6875ZM74.2227 25.0703V15.3203H76.4023V28H74.3281L74.2227 25.0703ZM74.6328 22.3984L75.5352 22.375C75.5352 23.2188 75.4453 24 75.2656 24.7188C75.0938 25.4297 74.8125 26.0469 74.4219 26.5703C74.0312 27.0938 73.5195 27.5039 72.8867 27.8008C72.2539 28.0898 71.4844 28.2344 70.5781 28.2344C69.9609 28.2344 69.3945 28.1445 68.8789 27.9648C68.3711 27.7852 67.9336 27.5078 67.5664 27.1328C67.1992 26.7578 66.9141 26.2695 66.7109 25.668C66.5156 25.0664 66.418 24.3438 66.418 23.5V15.3203H68.5859V23.5234C68.5859 24.0938 68.6484 24.5664 68.7734 24.9414C68.9062 25.3086 69.082 25.6016 69.3008 25.8203C69.5273 26.0312 69.7773 26.1797 70.0508 26.2656C70.332 26.3516 70.6211 26.3945 70.918 26.3945C71.8398 26.3945 72.5703 26.2188 73.1094 25.8672C73.6484 25.5078 74.0352 25.0273 74.2695 24.4258C74.5117 23.8164 74.6328 23.1406 74.6328 22.3984ZM87.0898 24.6367C87.0898 24.3242 87.0195 24.0352 86.8789 23.7695C86.7461 23.4961 86.4688 23.25 86.0469 23.0312C85.6328 22.8047 85.0078 22.6094 84.1719 22.4453C83.4688 22.2969 82.832 22.1211 82.2617 21.918C81.6992 21.7148 81.2188 21.4688 80.8203 21.1797C80.4297 20.8906 80.1289 20.5508 79.918 20.1602C79.707 19.7695 79.6016 19.3125 79.6016 18.7891C79.6016 18.2891 79.7109 17.8164 79.9297 17.3711C80.1562 16.9258 80.4727 16.5312 80.8789 16.1875C81.293 15.8438 81.7891 15.5742 82.3672 15.3789C82.9453 15.1836 83.5898 15.0859 84.3008 15.0859C85.3164 15.0859 86.1836 15.2656 86.9023 15.625C87.6211 15.9844 88.1719 16.4648 88.5547 17.0664C88.9375 17.6602 89.1289 18.3203 89.1289 19.0469H86.9609C86.9609 18.6953 86.8555 18.3555 86.6445 18.0273C86.4414 17.6914 86.1406 17.4141 85.7422 17.1953C85.3516 16.9766 84.8711 16.8672 84.3008 16.8672C83.6992 16.8672 83.2109 16.9609 82.8359 17.1484C82.4688 17.3281 82.1992 17.5586 82.0273 17.8398C81.8633 18.1211 81.7812 18.418 81.7812 18.7305C81.7812 18.9648 81.8203 19.1758 81.8984 19.3633C81.9844 19.543 82.1328 19.7109 82.3438 19.8672C82.5547 20.0156 82.8516 20.1562 83.2344 20.2891C83.6172 20.4219 84.1055 20.5547 84.6992 20.6875C85.7383 20.9219 86.5938 21.2031 87.2656 21.5312C87.9375 21.8594 88.4375 22.2617 88.7656 22.7383C89.0938 23.2148 89.2578 23.793 89.2578 24.4727C89.2578 25.0273 89.1406 25.5352 88.9062 25.9961C88.6797 26.457 88.3477 26.8555 87.9102 27.1914C87.4805 27.5195 86.9648 27.7773 86.3633 27.9648C85.7695 28.1445 85.1016 28.2344 84.3594 28.2344C83.2422 28.2344 82.2969 28.0352 81.5234 27.6367C80.75 27.2383 80.1641 26.7227 79.7656 26.0898C79.3672 25.457 79.168 24.7891 79.168 24.0859H81.3477C81.3789 24.6797 81.5508 25.1523 81.8633 25.5039C82.1758 25.8477 82.5586 26.0938 83.0117 26.2422C83.4648 26.3828 83.9141 26.4531 84.3594 26.4531C84.9531 26.4531 85.4492 26.375 85.8477 26.2188C86.2539 26.0625 86.5625 25.8477 86.7734 25.5742C86.9844 25.3008 87.0898 24.9883 87.0898 24.6367ZM97.4141 15.3203V16.9844H90.5586V15.3203H97.4141ZM92.8789 12.2383H95.0469V24.8594C95.0469 25.2891 95.1133 25.6133 95.2461 25.832C95.3789 26.0508 95.5508 26.1953 95.7617 26.2656C95.9727 26.3359 96.1992 26.3711 96.4414 26.3711C96.6211 26.3711 96.8086 26.3555 97.0039 26.3242C97.207 26.2852 97.3594 26.2539 97.4609 26.2305L97.4727 28C97.3008 28.0547 97.0742 28.1055 96.793 28.1523C96.5195 28.207 96.1875 28.2344 95.7969 28.2344C95.2656 28.2344 94.7773 28.1289 94.332 27.918C93.8867 27.707 93.5312 27.3555 93.2656 26.8633C93.0078 26.3633 92.8789 25.6914 92.8789 24.8477V12.2383ZM105.219 28.2344C104.336 28.2344 103.535 28.0859 102.816 27.7891C102.105 27.4844 101.492 27.0586 100.977 26.5117C100.469 25.9648 100.078 25.3164 99.8047 24.5664C99.5312 23.8164 99.3945 22.9961 99.3945 22.1055V21.6133C99.3945 20.582 99.5469 19.6641 99.8516 18.8594C100.156 18.0469 100.57 17.3594 101.094 16.7969C101.617 16.2344 102.211 15.8086 102.875 15.5195C103.539 15.2305 104.227 15.0859 104.938 15.0859C105.844 15.0859 106.625 15.2422 107.281 15.5547C107.945 15.8672 108.488 16.3047 108.91 16.8672C109.332 17.4219 109.645 18.0781 109.848 18.8359C110.051 19.5859 110.152 20.4062 110.152 21.2969V22.2695H100.684V20.5H107.984V20.3359C107.953 19.7734 107.836 19.2266 107.633 18.6953C107.438 18.1641 107.125 17.7266 106.695 17.3828C106.266 17.0391 105.68 16.8672 104.938 16.8672C104.445 16.8672 103.992 16.9727 103.578 17.1836C103.164 17.3867 102.809 17.6914 102.512 18.0977C102.215 18.5039 101.984 19 101.82 19.5859C101.656 20.1719 101.574 20.8477 101.574 21.6133V22.1055C101.574 22.707 101.656 23.2734 101.82 23.8047C101.992 24.3281 102.238 24.7891 102.559 25.1875C102.887 25.5859 103.281 25.8984 103.742 26.125C104.211 26.3516 104.742 26.4648 105.336 26.4648C106.102 26.4648 106.75 26.3086 107.281 25.9961C107.812 25.6836 108.277 25.2656 108.676 24.7422L109.988 25.7852C109.715 26.1992 109.367 26.5938 108.945 26.9688C108.523 27.3438 108.004 27.6484 107.387 27.8828C106.777 28.1172 106.055 28.2344 105.219 28.2344ZM114.852 18.0273V28H112.684V15.3203H114.734L114.852 18.0273ZM114.336 21.1797L113.434 21.1445C113.441 20.2773 113.57 19.4766 113.82 18.7422C114.07 18 114.422 17.3555 114.875 16.8086C115.328 16.2617 115.867 15.8398 116.492 15.543C117.125 15.2383 117.824 15.0859 118.59 15.0859C119.215 15.0859 119.777 15.1719 120.277 15.3438C120.777 15.5078 121.203 15.7734 121.555 16.1406C121.914 16.5078 122.188 16.9844 122.375 17.5703C122.562 18.1484 122.656 18.8555 122.656 19.6914V28H120.477V19.668C120.477 19.0039 120.379 18.4727 120.184 18.0742C119.988 17.668 119.703 17.375 119.328 17.1953C118.953 17.0078 118.492 16.9141 117.945 16.9141C117.406 16.9141 116.914 17.0273 116.469 17.2539C116.031 17.4805 115.652 17.793 115.332 18.1914C115.02 18.5898 114.773 19.0469 114.594 19.5625C114.422 20.0703 114.336 20.6094 114.336 21.1797ZM131.258 15.3203V16.9844H124.402V15.3203H131.258ZM126.723 12.2383H128.891V24.8594C128.891 25.2891 128.957 25.6133 129.09 25.832C129.223 26.0508 129.395 26.1953 129.605 26.2656C129.816 26.3359 130.043 26.3711 130.285 26.3711C130.465 26.3711 130.652 26.3555 130.848 26.3242C131.051 26.2852 131.203 26.2539 131.305 26.2305L131.316 28C131.145 28.0547 130.918 28.1055 130.637 28.1523C130.363 28.207 130.031 28.2344 129.641 28.2344C129.109 28.2344 128.621 28.1289 128.176 27.918C127.73 27.707 127.375 27.3555 127.109 26.8633C126.852 26.3633 126.723 25.6914 126.723 24.8477V12.2383Z" fill="#607BC9"/>
</g>
<defs>
<filter id="filter0_d_37_32" x="0" y="0" width="144" height="46" filterUnits="userSpaceOnUse" color-interpolation-filters="sRGB">
<feFlood flood-opacity="0" result="BackgroundImageFix"/>
<feColorMatrix in="SourceAlpha" type="matrix" values="0 0 0 0 0 0 0 0 0 0 0 0 0 0 0 0 0 0 127 0" result="hardAlpha"/>
<feOffset dy="4"/>
<feGaussianBlur stdDeviation="2"/>
<feComposite in2="hardAlpha" operator="out"/>
<feColorMatrix type="matrix" values="0 0 0 0 0 0 0 0 0 0 0 0 0 0 0 0 0 0 0.25 0"/>
<feBlend mode="normal" in2="BackgroundImageFix" result="effect1_dropShadow_37_32"/>
<feBlend mode="normal" in="SourceGraphic" in2="effect1_dropShadow_37_32" result="shape"/>
</filter>
</defs>
</svg>
